<svg width="720" height="720" viewBox="0 0 720 720" fill="none" xmlns="http://www.w3.org/2000/svg">
<path d="M39.375 129.375C39.375 120.055 46.9383 112.5 56.268 112.5H639.807C651.592 112.5 659.756 124.25 655.633 135.279L483.221 596.479C480.754 603.076 474.445 607.45 467.395 607.45H56.268C46.9383 607.45 39.375 599.895 39.375 590.575V129.375Z" fill="white"/>
<path fill-rule="evenodd" clip-rule="evenodd" d="M56.268 112.5C46.9383 112.5 39.375 120.055 39.375 129.375V590.575C39.375 599.895 46.9383 607.45 56.268 607.45H467.395C474.445 607.45 480.754 603.076 483.221 596.479L521.683 493.594H571.569V423.408H576.151L621.362 493.594H680.626L629.305 420.967C645.597 416.898 658.02 408.659 666.574 396.249C675.331 383.636 679.709 369.395 679.709 353.527C679.709 334.404 673.498 317.925 661.075 304.092C648.652 290.258 630.832 283.341 607.615 283.341H600.282L655.633 135.279C659.756 124.25 651.592 112.5 639.807 112.5H56.268ZM583.627 327.894L600.282 283.341H520.553V493.594H521.683L571.569 360.15V379.465H605.172C612.911 379.465 618.613 376.922 622.279 371.836C626.148 366.75 628.083 360.647 628.083 353.527C628.083 346.407 626.148 340.405 622.279 335.523C618.613 330.437 612.911 327.894 605.172 327.894H583.627ZM583.627 327.894L571.569 360.15V327.894H583.627ZM166.2 512.208L161.618 557.982C173.023 561.847 184.326 563.78 195.527 563.78C219.762 563.78 237.582 557.066 248.986 543.639C260.595 530.213 266.399 512.819 266.399 491.458V283.341H214.772V491.458C214.772 498.781 213.143 504.681 209.884 509.157C206.83 513.632 202.044 515.87 195.527 515.87C182.9 515.87 173.125 514.65 166.2 512.208ZM473.59 283.341H422.574V396.554L359.645 283.341H313.517V493.594H364.533V378.855L428.989 493.594H473.59V283.341Z" fill="url(#paint0_linear_155_25)"/>
<defs>
<linearGradient id="paint0_linear_155_25" x1="516.483" y1="119.531" x2="229.715" y2="590.833" gradientUnits="userSpaceOnUse">
<stop stop-color="#AD00FF"/>
<stop offset="0.0001" stop-color="#AD00FF"/>
<stop offset="1" stop-color="#CC00FF"/>
</linearGradient>
</defs>
</svg>
